<svg width="14" height="14" viewBox="0 0 14 14" fill="none" xmlns="http://www.w3.org/2000/svg">
<path fill-rule="evenodd" clip-rule="evenodd" d="M6.19961 1.80011C5.03266 1.80011 3.9135 2.26368 3.08834 3.08885C2.26318 3.91401 1.79961 5.03316 1.79961 6.20011C1.79961 7.36707 2.26318 8.48622 3.08834 9.31139C3.9135 10.1365 5.03266 10.6001 6.19961 10.6001C7.36656 10.6001 8.48572 10.1365 9.31088 9.31139C10.136 8.48622 10.5996 7.36707 10.5996 6.20011C10.5996 5.03316 10.136 3.91401 9.31088 3.08885C8.48572 2.26368 7.36656 1.80011 6.19961 1.80011ZM0.599609 6.20011C0.599685 5.30465 0.814499 4.42226 1.22603 3.62696C1.63757 2.83167 2.23382 2.14666 2.96477 1.62939C3.69573 1.11213 4.54007 0.777693 5.42697 0.654144C6.31387 0.530596 7.21746 0.621534 8.06196 0.919332C8.90646 1.21713 9.66722 1.7131 10.2804 2.36565C10.8937 3.01819 11.3415 3.80828 11.5863 4.66963C11.8311 5.53098 11.8658 6.43848 11.6874 7.316C11.509 8.19352 11.1228 9.01548 10.5612 9.71291L13.2236 12.3761C13.2826 12.431 13.3298 12.4973 13.3626 12.5709C13.3954 12.6445 13.4131 12.7239 13.4145 12.8045C13.4159 12.8851 13.4011 12.9651 13.3709 13.0398C13.3407 13.1145 13.2958 13.1824 13.2388 13.2393C13.1819 13.2963 13.114 13.3412 13.0393 13.3714C12.9646 13.4016 12.8846 13.4164 12.804 13.415C12.7234 13.4136 12.644 13.3959 12.5704 13.3631C12.4968 13.3303 12.4305 13.2831 12.3756 13.2241L9.71241 10.5617C8.88964 11.2244 7.8962 11.6409 6.84681 11.763C5.79743 11.8851 4.73491 11.7078 3.78197 11.2517C2.82903 10.7956 2.02454 10.0793 1.46143 9.1854C0.898313 8.29152 0.599538 7.25658 0.599609 6.20011Z" fill="black"/>
</svg>
